<svg width="180" height="48" viewBox="0 0 180 48" fill="none" xmlns="http://www.w3.org/2000/svg" role="img" aria-label="Partify">
  <defs>
    <linearGradient id="pinGradient" x1="8" y1="5" x2="42" y2="43" gradientUnits="userSpaceOnUse">
      <stop offset="0" stop-color="#FF5722"/>
      <stop offset="1" stop-color="#D84315"/>
    </linearGradient>
  </defs>
  <path d="M25 5C33 5 39 11 39 20C39 31 25 43 25 43C25 43 11 31 11 20C11 11 17 5 25 5Z" fill="url(#pinGradient)"/>
  <path d="M21.5 14H26C29.4 14 31.8 16.3 31.8 19.5C31.8 22.8 29.4 25 26 25H23.7V31H21.5V14ZM23.7 16.1V22.9H26C28.2 22.9 29.6 21.6 29.6 19.5C29.6 17.5 28.2 16.1 26 16.1H23.7Z" fill="white"/>
  <circle cx="25" cy="35" r="2.2" fill="white"/>
  <text x="52" y="31" fill="#FF5722" font-family="Arial, Helvetica, sans-serif" font-size="26" font-weight="700">Partify</text>
</svg>
